<svg xmlns="http://www.w3.org/2000/svg" width="1024" height="1024" viewBox="0 0 1024 1024">
<defs><linearGradient id="blue" x1="0" y1="0" x2="1" y2="1"><stop offset="0" stop-color="#28c7ff"/><stop offset=".52" stop-color="#1469f5"/><stop offset="1" stop-color="#0633b8"/></linearGradient><linearGradient id="teal" x1="0" y1="0" x2="1" y2="1"><stop stop-color="#39e6c1"/><stop offset="1" stop-color="#079c87"/></linearGradient><linearGradient id="orange" x1="0" y1="0" x2="1" y2="1"><stop stop-color="#ffc54c"/><stop offset="1" stop-color="#ff8a22"/></linearGradient><linearGradient id="red" x1="0" y1="0" x2="1" y2="1"><stop stop-color="#ff6b83"/><stop offset="1" stop-color="#d92751"/></linearGradient></defs>
<path d="M260 168h350c116 0 194 61 194 157v378c0 102-76 159-194 159H402c-77 0-127-41-127-109V229c0-33-4-51-15-61Z" fill="url(#blue)"/>
<path d="M603 168v128c0 39 28 66 70 66h131" fill="#25d9d5"/>
<rect x="350" y="380" width="143" height="143" rx="28" fill="#2488ff"/><rect x="514" y="380" width="143" height="143" rx="28" fill="url(#teal)"/><rect x="350" y="544" width="143" height="143" rx="28" fill="url(#orange)"/><rect x="514" y="544" width="143" height="143" rx="28" fill="url(#red)"/>
<g fill="none" stroke="#fff" stroke-width="16" stroke-linecap="round" stroke-linejoin="round"><path d="M387 423h70M387 456h70M387 489h44"/><rect x="547" y="413" width="77" height="78" rx="5"/><path d="M547 440h77M547 466h77M574 413v78"/><path d="M386 624a39 39 0 0 1 39-39v39h39a39 39 0 1 1-78 0Z"/><path d="M434 576a39 39 0 0 1 39 39h-39Z" fill="#fff" stroke="none"/><path d="M552 655c16-12 30-29 43-49 13-21 17-40 12-49-4-7-14-6-17 3-6 16 10 61 33 82 17 15 33 19 43 13 7-4 3-13-6-16-19-6-58 5-81 22-17 13-19 24-11 27 8 4 18-10 22-20"/></g>
</svg>